<?xml version="1.0" encoding="UTF-8"?>
<svg width="24px" height="24px" viewBox="0 0 24 24" version="1.1" xmlns="http://www.w3.org/2000/svg" xmlns:xlink="http://www.w3.org/1999/xlink">
    <!-- Generator: Sketch 63 (92445) - https://sketch.com -->
    <title>放大镜</title>
    <desc>Created with Sketch.</desc>
    <g id="页面-1" stroke="none" stroke-width="1" fill="none" fill-rule="evenodd">
        <g id="旅游网站" transform="translate(-1856.000000, -139.000000)" fill="#FFFFFF" fill-rule="nonzero">
            <g id="搜索" transform="translate(1698.000000, 137.000000)">
                <g id="放大镜" transform="translate(158.000000, 2.000000)">
                    <path d="M22.1035714,19.36875 C21.9133929,19.1892857 18.7607143,16.3419643 18.65625,16.2455357 C18.5410714,16.1383929 18.3857143,16.0821429 18.2732143,16.0794643 C18.0696429,16.0660714 17.9571429,16.1169643 17.8526786,16.1625 C17.7723214,16.2 17.6973214,16.2455357 17.6223214,16.29375 C17.3651786,16.0553571 17.1589286,15.8491071 17.0410714,15.7526786 C17.0196429,15.7366071 16.9875,15.7366071 16.9446429,15.7473214 C16.89375,15.6991071 16.8214286,15.6294643 16.7383929,15.5544643 C16.7008929,15.5196429 16.6151786,15.5491071 16.5080357,15.6160714 C16.4223214,15.5357143 16.2589286,15.3830357 16.1142857,15.2491071 C16.9232143,14.3008929 17.38125,13.1571429 17.4830357,11.9946429 C17.6330357,10.275 17.0116071,8.50714286 15.6508929,7.24553571 C14.6732143,6.3375 13.4625,5.83660714 12.2276786,5.72946429 C10.5133929,5.58214286 8.74553571,6.20357143 7.48660714,7.56964286 C6.58392857,8.55 6.07767857,9.76607143 5.97053571,11.0008929 C5.82321429,12.7205357 6.44196429,14.4883929 7.80267857,15.75 C8.78035714,16.6580357 9.99107143,17.1589286 11.2258929,17.2660714 L11.2285714,17.2660714 C12.6964286,17.3946429 14.2017857,16.9553571 15.39375,15.9696429 C15.5410714,16.10625 15.7151786,16.2642857 15.8116071,16.3553571 C15.7553571,16.4598214 15.7339286,16.5482143 15.7794643,16.5910714 C15.8571429,16.6633929 15.9214286,16.725 15.9696429,16.7705357 C15.9642857,16.81875 15.9696429,16.85625 15.9991071,16.8776786 C16.0848214,16.95 16.2883929,17.1482143 16.5535714,17.3892857 C16.4544643,17.5473214 16.3633929,17.6973214 16.33125,17.9544643 C16.3125,18.1017857 16.3526786,18.3535714 16.5401786,18.525 C16.6633929,18.6401786 19.875,21.5410714 19.9767857,21.6375 C20.0946429,21.7446429 20.2285714,21.7848214 20.3196429,21.7901786 L20.3223214,21.7901786 C20.4857143,21.8008929 20.5660714,21.7607143 20.6330357,21.7392857 C20.85,21.6375 20.9544643,21.5330357 21.1205357,21.3910714 C21.3455357,21.1821429 21.5973214,20.9142857 21.8089286,20.6678571 C21.9133929,20.5446429 22.0071429,20.4267857 22.0821429,20.3169643 C22.1196429,20.2607143 22.1544643,20.2044643 22.1892857,20.1455357 C22.2214286,20.0785714 22.2589286,20.025 22.2803571,19.85625 C22.29375,19.7598214 22.2910714,19.5482143 22.1035714,19.36875 L22.1035714,19.36875 Z M11.3196429,16.1571429 C10.3205357,16.0714286 9.34553571,15.6669643 8.55267857,14.9330357 C7.44910714,13.9125 6.94821429,12.4848214 7.06875,11.0919643 C7.15446429,10.0928571 7.55892857,9.11517857 8.29285714,8.31964286 C9.31071429,7.21607143 10.7383929,6.71517857 12.1285714,6.83303571 C13.1276786,6.91875 14.1026786,7.32321429 14.8955357,8.05714286 C15.9991071,9.07767857 16.4973214,10.5053571 16.3794643,11.8955357 C16.29375,12.8946429 15.8892857,13.8723214 15.1580357,14.6678571 C14.1375,15.7767857 12.7125,16.275 11.3196429,16.1571429 L11.3196429,16.1571429 Z M24,11.9973214 L20.6330357,8.63035714 L20.0410714,9.22767857 L22.8160714,12.0026786 L20.0410714,14.7776786 L20.6330357,15.3696429 L24,12.0026786 L23.9973214,12.0026786 L24,11.9973214 Z M0,11.9973214 L3.36696429,8.63035714 L3.95892857,9.22767857 L1.18392857,12.0026786 L3.95892857,14.7776786 L3.36696429,15.3696429 L0,12.0026786 L0.00267857143,12.0026786 L0,11.9973214 Z M11.9973214,0 L8.63035714,3.36696429 L9.22232143,3.95892857 L12.0026786,1.18392857 L14.7776786,3.95892857 L15.3696429,3.36696429 L12.0026786,0 L12.0026786,0.00267857143 L11.9973214,0 Z M11.9973214,24 L8.63035714,20.6330357 L9.22232143,20.0410714 L12.0026786,22.8160714 L14.7776786,20.0410714 L15.3696429,20.6330357 L12.0026786,24 L12.0026786,23.9973214 L11.9973214,24 Z" id="形状"></path>
                </g>
            </g>
        </g>
    </g>
</svg>